<svg width="32" height="32" viewBox="0 0 32 32" fill="none" xmlns="http://www.w3.org/2000/svg">
<path d="M20.4228 26.6673H27.3333C27.7015 26.6673 28 26.9658 28 27.334C28 27.7022 27.7015 28.0006 27.3333 28.0006H4.66667C4.29848 28.0006 4 27.7022 4 27.334C4 26.9658 4.29848 26.6673 4.66667 26.6673H15.9968L15.999 26.6673C17.7559 26.6648 19.4506 25.9782 20.714 24.7147C23.3175 22.1112 23.3175 17.8901 20.714 15.2866C20.2067 14.7793 19.638 14.3708 19.0318 14.0612C19.0066 14.0505 18.9818 14.0381 18.9577 14.024C16.7367 12.9245 14.0303 13.139 11.9986 14.6673H14C14.3682 14.6673 14.6667 14.9658 14.6667 15.334C14.6667 15.7022 14.3682 16.0006 14 16.0006H10C9.63181 16.0006 9.33333 15.7022 9.33333 15.334V11.334C9.33333 10.9658 9.63181 10.6673 10 10.6673C10.3682 10.6673 10.6667 10.9658 10.6667 11.334V14.0375C12.6187 12.2886 15.2232 11.6659 17.6397 12.1696C17.4455 11.6744 17.3333 11.1549 17.3333 10.6673C17.3333 8.45818 19.1242 6.66732 21.3333 6.66732H21.7239L21.5286 6.47206C21.2682 6.21171 21.2682 5.7896 21.5286 5.52925C21.7889 5.2689 22.2111 5.2689 22.4714 5.52925L23.8047 6.86258C24.0651 7.12293 24.0651 7.54504 23.8047 7.80539L22.4714 9.13872C22.2111 9.39907 21.7889 9.39907 21.5286 9.13872C21.2682 8.87837 21.2682 8.45626 21.5286 8.19591L21.7239 8.00065H21.3333C19.8606 8.00065 18.6667 9.19456 18.6667 10.6673C18.6667 11.4157 19.1068 12.3644 19.6689 12.8892C20.3849 13.2587 21.0567 13.7436 21.6569 14.3438C24.7811 17.468 24.7811 22.5333 21.6569 25.6575C21.2759 26.0385 20.8622 26.3758 20.4228 26.6673Z" fill="white"/>
</svg>
