<svg width="32" height="32" viewBox="0 0 32 32" fill="none" xmlns="http://www.w3.org/2000/svg">
<g clip-path="url(#clip0_4363_5410)">
<path d="M5.33268 9.33398V12.0007C5.33268 12.734 4.73268 13.334 3.99935 13.334C3.26602 13.334 2.66602 13.934 2.66602 14.6673V17.334C2.66602 18.0673 3.26602 18.6673 3.99935 18.6673C4.73268 18.6673 5.33268 19.2673 5.33268 20.0007V22.6673C5.33268 24.8807 7.11935 26.6673 9.33268 26.6673H11.9993C12.7327 26.6673 13.3327 26.0673 13.3327 25.334C13.3327 24.6007 12.7327 24.0007 11.9993 24.0007H9.33268C8.59935 24.0007 7.99935 23.4007 7.99935 22.6673V20.0007C7.99935 18.2673 6.87935 16.774 5.33268 16.2273V15.774C6.87935 15.2273 7.99935 13.734 7.99935 12.0007V9.33398C7.99935 8.60065 8.59935 8.00065 9.33268 8.00065H11.9993C12.7327 8.00065 13.3327 7.40065 13.3327 6.66732C13.3327 5.93398 12.7327 5.33398 11.9993 5.33398H9.33268C7.11935 5.33398 5.33268 7.12065 5.33268 9.33398Z" fill="white"/>
<path d="M27.9993 13.334C27.266 13.334 26.666 12.734 26.666 12.0007V9.33398C26.666 7.12065 24.8793 5.33398 22.666 5.33398H19.9993C19.266 5.33398 18.666 5.93398 18.666 6.66732C18.666 7.40065 19.266 8.00065 19.9993 8.00065H22.666C23.3993 8.00065 23.9993 8.60065 23.9993 9.33398V12.0007C23.9993 13.734 25.1193 15.2273 26.666 15.774V16.2273C25.1193 16.774 23.9993 18.254 23.9993 20.0007V22.6673C23.9993 23.4007 23.3993 24.0007 22.666 24.0007H19.9993C19.266 24.0007 18.666 24.6007 18.666 25.334C18.666 26.0673 19.266 26.6673 19.9993 26.6673H22.666C24.8793 26.6673 26.666 24.8807 26.666 22.6673V20.0007C26.666 19.2673 27.266 18.6673 27.9993 18.6673C28.7327 18.6673 29.3327 18.0673 29.3327 17.334V14.6673C29.3327 13.934 28.7327 13.334 27.9993 13.334Z" fill="white"/>
</g>
<defs>
<clipPath id="clip0_4363_5410">
<rect width="32" height="32" fill="white"/>
</clipPath>
</defs>
</svg>
