<svg width="32" height="32" viewBox="0 0 32 32" fill="none" xmlns="http://www.w3.org/2000/svg">
<g clip-path="url(#clip0_4363_5403)">
<path d="M13.5992 0V8.608L15.9992 11.904L18.3992 8.608V0H13.5992ZM18.3992 8.608V12.704L22.2712 11.424L27.3592 4.48L23.4552 1.632L18.3992 8.608ZM22.2712 11.424L19.8712 14.752L23.7752 16L31.9672 13.344L30.4632 8.768L22.2712 11.424ZM23.7752 16L19.8712 17.248L22.2712 20.576L30.4632 23.232L31.9672 18.656L23.7752 16ZM22.2712 20.576L18.3992 19.296V23.392L23.4552 30.368L27.3592 27.52L22.2712 20.576ZM18.3992 23.392L15.9992 20.096L13.5992 23.392V32H18.3992V23.392ZM13.5992 23.392V19.296L9.72725 20.576L4.63925 27.52L8.54325 30.368L13.5992 23.392ZM9.72725 20.576L12.1272 17.248L8.22325 16L0.03125 18.656L1.53525 23.232L9.72725 20.576ZM8.22325 16L12.1272 14.752L9.72725 11.424L1.53525 8.768L0.03125 13.344L8.22325 16ZM9.72725 11.424L13.5992 12.704V8.608L8.54325 1.632L4.63925 4.48L9.72725 11.424Z" fill="white"/>
</g>
<defs>
<clipPath id="clip0_4363_5403">
<rect width="32" height="32" fill="white"/>
</clipPath>
</defs>
</svg>
