<svg width="32" height="32" viewBox="0 0 32 32" fill="none" xmlns="http://www.w3.org/2000/svg">
<path d="M16.0003 2.66602H11.5558C9.10117 2.66602 7.11133 4.65586 7.11133 7.11046C7.11133 9.56506 9.10117 11.5549 11.5558 11.5549H16.0003V2.66602Z" stroke="white"/>
<path d="M16.0003 11.5547H11.5558C9.10117 11.5547 7.11133 13.5446 7.11133 15.9991C7.11133 18.4538 9.10117 20.4436 11.5558 20.4436H16.0003V11.5547Z" stroke="white"/>
<path d="M24.8889 15.9991C24.8889 18.4538 22.8991 20.4436 20.4444 20.4436C17.9899 20.4436 16 18.4538 16 15.9991C16 13.5446 17.9899 11.5547 20.4444 11.5547C22.8991 11.5547 24.8889 13.5446 24.8889 15.9991Z" stroke="white"/>
<path d="M11.5558 20.4453H16.0003V24.8897C16.0003 27.3444 14.0104 29.3342 11.5558 29.3342C9.10117 29.3342 7.11133 27.3444 7.11133 24.8897C7.11133 22.4352 9.10117 20.4453 11.5558 20.4453Z" stroke="white"/>
<path d="M16 2.66602H20.4444C22.8991 2.66602 24.8889 4.65586 24.8889 7.11046C24.8889 9.56506 22.8991 11.5549 20.4444 11.5549H16V2.66602Z" stroke="white"/>
</svg>
