<svg width="32" height="32" viewBox="0 0 32 32" fill="none" xmlns="http://www.w3.org/2000/svg">
<path fill-rule="evenodd" clip-rule="evenodd" d="M17.885 5.10397C16.8437 4.06257 15.1551 4.06257 14.1138 5.10397L13.2183 5.99939L15.3087 8.08971C15.529 8.03081 15.7605 7.99939 15.9994 7.99939C17.4722 7.99939 18.6661 9.1933 18.6661 10.6661C18.6661 10.9049 18.6346 11.1365 18.5758 11.3568L21.3087 14.0897C21.529 14.0309 21.7605 13.9994 21.9994 13.9994C23.4722 13.9994 24.6661 15.1933 24.6661 16.6661C24.6661 18.1389 23.4722 19.3327 21.9994 19.3327C20.5266 19.3327 19.3327 18.1389 19.3327 16.6661C19.3327 16.4271 19.3642 16.1957 19.423 15.9754L17.3327 13.885V20.3562C18.1298 20.8173 18.6661 21.679 18.6661 22.6661C18.6661 24.1389 17.4722 25.3327 15.9994 25.3327C14.5266 25.3327 13.3327 24.1389 13.3327 22.6661C13.3327 21.679 13.869 20.8173 14.6661 20.3562V12.976C13.869 12.5149 13.3327 11.6531 13.3327 10.6661C13.3327 10.4272 13.3642 10.1956 13.423 9.97534L11.3327 7.88501L5.10397 14.1138C4.06257 15.1551 4.06257 16.8437 5.10397 17.885L14.1138 26.8949C15.1551 27.9362 16.8437 27.9362 17.885 26.8949L26.8949 17.885C27.9362 16.8437 27.9362 15.1551 26.8949 14.1138L17.885 5.10397ZM12.2282 3.21834C14.311 1.13555 17.6878 1.13555 19.7706 3.21835L28.7805 12.2282C30.8633 14.311 30.8633 17.6878 28.7805 19.7706L19.7706 28.7805C17.6878 30.8633 14.311 30.8633 12.2282 28.7805L3.21834 19.7706C1.13555 17.6878 1.13555 14.311 3.21835 12.2282L12.2282 3.21834Z" fill="white"/>
</svg>
