<svg width="32" height="32" viewBox="0 0 32 32" fill="none" xmlns="http://www.w3.org/2000/svg">
<path d="M15.2946 1.19156C15.7305 0.936146 16.2695 0.936146 16.7054 1.19156L28.3054 7.98843C28.7355 8.24043 29 8.70296 29 9.20311V22.7968C29 23.2971 28.7355 23.7595 28.3054 24.0115L16.7054 30.8083C16.2695 31.0639 15.7305 31.0639 15.2946 30.8083L12.3946 29.1092C11.7267 28.7179 11.5011 27.8567 11.8907 27.1858C12.2803 26.5151 13.1375 26.2885 13.8054 26.6798L16 27.9656L26.2 21.9891V10.0108L16 4.03427L5.79999 10.0108V21.9891L7.88468 23.2107C8.52715 23.4177 9.32073 23.4683 9.88007 23.22C10.1396 23.1049 10.3739 22.9174 10.5594 22.5825C10.7546 22.23 10.9333 21.6433 10.9333 20.6875V10.8437C10.9333 10.0671 11.5601 9.43749 12.3333 9.43749C13.1065 9.43749 13.7333 10.0671 13.7333 10.8437V20.6875C13.7333 21.9816 13.4926 23.0717 13.0062 23.9498C12.5101 24.8455 11.8007 25.4425 11.0116 25.7927C9.50648 26.4606 7.84442 26.1868 6.82664 25.8195C6.74613 25.7905 6.66846 25.7541 6.59458 25.7108L3.69459 24.0115C3.26447 23.7595 3 23.2971 3 22.7968V9.20311C3 8.70296 3.26447 8.24043 3.69459 7.98843L15.2946 1.19156ZM16.5269 10.906C17.2676 10.0203 18.4246 9.43749 19.9945 9.43749C21.4514 9.43749 22.5611 9.93916 23.3121 10.7371C23.8432 11.3016 23.8183 12.1916 23.2563 12.7251C22.6944 13.2586 21.8083 13.2335 21.2772 12.6691C21.1137 12.4954 20.771 12.25 19.9945 12.25C19.1687 12.25 18.8284 12.5266 18.6708 12.715C18.4674 12.9582 18.4 13.2659 18.4 13.4219C18.4 13.5778 18.4674 13.8855 18.6708 14.1287C18.8284 14.3171 19.1687 14.5937 19.9945 14.5937C20.1326 14.5937 20.2661 14.6138 20.3923 14.6513C21.5487 14.8187 22.4299 15.3397 23.0341 16.0623C23.7291 16.8933 23.9611 17.8747 23.9611 18.5781C23.9611 19.2815 23.7291 20.263 23.0341 21.094C22.2935 21.9797 21.1365 22.5625 19.5666 22.5625C18.1097 22.5625 16.9999 22.0607 16.249 21.2629C15.7179 20.6983 15.7428 19.8083 16.3047 19.2749C16.8666 18.7414 17.7527 18.7665 18.2838 19.3309C18.4473 19.5046 18.7901 19.75 19.5666 19.75C20.3924 19.75 20.7327 19.4734 20.8903 19.2849C21.0936 19.0417 21.1611 18.734 21.1611 18.5781C21.1611 18.4222 21.0936 18.1145 20.8903 17.8713C20.7327 17.6828 20.3924 17.4062 19.5666 17.4062C19.4284 17.4062 19.2949 17.3861 19.1688 17.3486C18.0124 17.1812 17.1312 16.6603 16.5269 15.9377C15.8319 15.1067 15.6 14.1253 15.6 13.4219C15.6 12.7184 15.8319 11.737 16.5269 10.906Z" fill="white"/>
</svg>
