<svg width="32" height="32" viewBox="0 0 32 32" fill="none" xmlns="http://www.w3.org/2000/svg">
<path d="M29.3228 19.4803C25.718 20.2239 25.4702 19.0034 25.4702 19.0034C29.2763 13.3557 30.8673 6.18684 29.4943 4.4323C25.7484 -0.353748 19.2642 1.90974 19.156 1.96851L19.1211 1.97474C18.4089 1.8269 17.6119 1.73883 16.7161 1.72421C15.085 1.69748 13.8477 2.15182 12.9088 2.8638C12.9088 2.8638 1.34155 -1.90146 1.87953 8.85702C1.99397 11.1458 5.16 26.175 8.93631 21.6355C10.3165 19.9755 11.6501 18.572 11.6501 18.572C12.3125 19.012 13.1055 19.2365 13.9368 19.1559L14.0013 19.101C13.9813 19.3071 13.9904 19.5087 14.0272 19.7474C13.0544 20.8343 13.3402 21.0251 11.3955 21.4254C9.4277 21.831 10.5837 22.553 11.3385 22.7417C12.2535 22.9705 14.3703 23.2946 15.8007 21.2924L15.7436 21.5208C16.1248 21.8261 16.3925 23.5067 16.3476 25.0301C16.3027 26.5536 16.2728 27.5995 16.5731 28.4165C16.8735 29.2335 17.1728 31.0716 19.7293 30.5238C21.8656 30.0661 22.9725 28.8797 23.1265 26.9009C23.2358 25.4941 23.4831 25.702 23.4988 24.4443L23.6971 23.8488C23.9259 21.9418 23.7335 21.3265 25.0496 21.6127L25.3694 21.6408C26.3381 21.6849 27.6059 21.485 28.35 21.1391C29.9522 20.3956 30.9025 19.1541 29.3226 19.4803H29.3228Z" fill="#1E1E1E"/>
<path d="M13.5861 9.88119C13.2613 9.83597 12.9671 9.87782 12.8182 9.99048C12.7345 10.0539 12.7086 10.1274 12.7016 10.1779C12.6829 10.3119 12.7768 10.4599 12.8344 10.5363C12.9975 10.7525 13.2359 10.9012 13.4718 10.9339C13.506 10.9387 13.54 10.941 13.5738 10.941C13.9672 10.941 14.3248 10.6347 14.3564 10.4086C14.3958 10.1254 13.9847 9.93666 13.5861 9.88119Z" fill="white"/>
<path d="M24.3474 9.89092C24.3164 9.66898 23.9214 9.6057 23.5466 9.6578C23.1723 9.70997 22.8094 9.87888 22.8397 10.1013C22.864 10.2743 23.1763 10.5696 23.5461 10.5696C23.5772 10.5696 23.6088 10.5675 23.6405 10.5631C23.8873 10.5289 24.0684 10.3721 24.1544 10.2818C24.2855 10.1442 24.3612 9.99068 24.3474 9.89092Z" fill="white"/>
<path d="M30.5218 19.3967C30.3844 18.981 29.942 18.8472 29.207 18.9991C27.0245 19.4495 26.243 19.1375 25.9863 18.9485C27.6827 16.3642 29.0782 13.2404 29.831 10.3258C30.1877 8.94519 30.3847 7.66305 30.4007 6.61806C30.4185 5.47087 30.2232 4.62803 29.8203 4.11313C28.1957 2.03733 25.8115 0.92389 22.9254 0.893289C20.9414 0.871002 19.265 1.37881 18.94 1.52156C18.2556 1.35136 17.5095 1.24688 16.6974 1.23355C15.2079 1.20947 13.9204 1.56607 12.8544 2.29288C12.3914 2.1206 11.1948 1.70982 9.73147 1.47412C7.20147 1.06672 5.19109 1.37537 3.75639 2.39177C2.04449 3.60461 1.25418 5.77257 1.40733 8.83533C1.45885 9.86585 2.04592 13.0357 2.97253 16.0716C4.19217 20.0671 5.51788 22.3291 6.91288 22.7944C7.07613 22.8488 7.26446 22.887 7.472 22.887C7.98088 22.887 8.60471 22.6576 9.25384 21.8772C10.332 20.5801 11.3387 19.4932 11.7097 19.0983C12.2581 19.3927 12.8604 19.557 13.4767 19.5735C13.4778 19.5896 13.4794 19.6057 13.4808 19.6218C13.3572 19.7684 13.2558 19.8969 13.1694 20.0066C12.7425 20.5485 12.6536 20.6613 11.2794 20.9443C10.8886 21.0249 9.85022 21.2389 9.8351 21.9667C9.81855 22.7618 11.0623 23.0957 11.204 23.1311C11.6979 23.2547 12.1736 23.3157 12.6273 23.3157C13.7307 23.3157 14.7017 22.953 15.4777 22.2514C15.4538 25.086 15.5721 27.8793 15.9124 28.7303C16.1911 29.427 16.8721 31.1297 19.0232 31.1296C19.3388 31.1296 19.6863 31.0929 20.0684 31.011C22.3134 30.5296 23.2882 29.5374 23.6654 27.35C23.8672 26.1809 24.2135 23.3892 24.3763 21.8918C24.7201 21.999 25.1627 22.0481 25.6411 22.048C26.639 22.048 27.7903 21.836 28.5124 21.5009C29.3235 21.1242 30.7873 20.1997 30.5218 19.3967ZM25.1757 9.27778C25.1682 9.71987 25.1074 10.1212 25.0429 10.5401C24.9735 10.9907 24.9017 11.4565 24.8836 12.022C24.8658 12.5723 24.9345 13.1445 25.001 13.6977C25.1353 14.8152 25.2731 15.9658 24.7396 17.1011C24.6567 16.9538 24.5766 16.7931 24.5033 16.6152C24.437 16.4544 24.293 16.1962 24.0937 15.8389C23.318 14.4479 21.5016 11.1905 22.4315 9.86126C22.7084 9.46554 23.4113 9.05885 25.1757 9.27778ZM23.037 1.78851C25.6229 1.84563 27.6684 2.81301 29.1167 4.66365C30.2275 6.08316 29.0044 12.5422 25.4634 18.1144C25.4284 18.07 25.3928 18.0251 25.356 17.9791C25.3413 17.9607 25.3263 17.942 25.3112 17.923C26.2262 16.4119 26.0473 14.9168 25.888 13.5911C25.8226 13.0471 25.7608 12.5333 25.7765 12.0507C25.7928 11.539 25.8604 11.1004 25.9258 10.6761C26.0063 10.1533 26.088 9.61238 26.0655 8.97464C26.0823 8.90778 26.0891 8.82873 26.0803 8.73493C26.0227 8.12335 25.3245 6.29328 23.9014 4.63663C23.1231 3.73066 21.9879 2.7167 20.4379 2.03281C21.1046 1.89464 22.0163 1.76579 23.037 1.78851ZM8.56694 21.3061C7.85181 22.1659 7.35791 22.0011 7.19552 21.947C6.13726 21.594 4.90945 19.3575 3.8269 15.8108C2.89019 12.7419 2.34275 9.65602 2.29947 8.79068C2.16266 6.05399 2.82605 4.14667 4.27129 3.12174C6.62329 1.45377 10.4902 2.45211 12.0441 2.95849C12.0217 2.98049 11.9985 3.00113 11.9763 3.02349C9.42662 5.59857 9.4871 9.99814 9.49334 10.267C9.49312 10.3708 9.50179 10.5177 9.51376 10.7198C9.55762 11.4597 9.63924 12.8369 9.42117 14.3966C9.21844 15.846 9.66519 17.2645 10.6467 18.2886C10.7483 18.3946 10.8544 18.4941 10.9639 18.5878C10.527 19.0557 9.57754 20.0903 8.56694 21.3061ZM11.2917 17.6705C10.5006 16.8452 10.1413 15.697 10.3059 14.5203C10.5362 12.8727 10.4511 11.4378 10.4055 10.6669C10.3991 10.559 10.3934 10.4645 10.3901 10.3899C10.7626 10.0597 12.4887 9.13474 13.7197 9.41681C14.2815 9.54551 14.6237 9.92798 14.7661 10.586C15.5026 13.9924 14.8636 15.4122 14.3501 16.5531C14.2443 16.7881 14.1443 17.0103 14.0589 17.2402L13.9927 17.4178C13.8252 17.8671 13.6693 18.2847 13.5727 18.6814C12.7318 18.6788 11.9137 18.3196 11.2917 17.6705ZM11.4207 22.2645C11.1752 22.2032 10.9543 22.0966 10.8248 22.0082C10.933 21.9573 11.1256 21.888 11.4596 21.8193C13.0763 21.4864 13.3259 21.2515 13.8711 20.5593C13.9962 20.4006 14.1378 20.2207 14.3341 20.0015L14.3343 20.0012C14.6266 19.674 14.7602 19.7295 15.0027 19.83C15.1992 19.9114 15.3905 20.1576 15.4681 20.4286C15.5048 20.5566 15.5461 20.7996 15.4112 20.9886C14.2722 22.5833 12.6126 22.5628 11.4207 22.2645ZM19.8812 30.1375C17.9035 30.5613 17.2033 29.5522 16.7418 28.3986C16.444 27.6538 16.2976 24.2954 16.4015 20.5868C16.4028 20.5374 16.3958 20.4897 16.3822 20.445C16.3704 20.3585 16.3522 20.271 16.327 20.1829C16.1724 19.6433 15.7961 19.1919 15.3447 19.0047C15.1653 18.9304 14.836 18.794 14.4403 18.8952C14.5248 18.5476 14.6711 18.1551 14.8297 17.73L14.8963 17.5511C14.9712 17.3495 15.0652 17.1407 15.1646 16.9197C15.702 15.7259 16.4379 14.0909 15.6392 10.3972C15.34 9.0137 14.341 8.33813 12.8266 8.495C11.9186 8.58895 11.088 8.95529 10.6737 9.16534C10.5846 9.21049 10.5031 9.25406 10.427 9.29655C10.5426 7.90256 10.9796 5.29751 12.6138 3.64932C13.6427 2.61164 15.013 2.09917 16.6826 2.12676C19.9723 2.18065 22.0819 3.8689 23.2724 5.27573C24.2983 6.48806 24.8538 7.70921 25.0756 8.36779C23.4083 8.19831 22.2744 8.52746 21.6995 9.34923C20.449 11.1368 22.3837 14.6065 23.3135 16.2739C23.484 16.5796 23.6312 16.8437 23.6775 16.9559C23.9803 17.6897 24.3723 18.1796 24.6585 18.5373C24.7462 18.6469 24.8313 18.7531 24.896 18.8459C24.3911 18.9916 23.4841 19.3279 23.5667 21.0092C23.5 21.8529 23.0259 25.8027 22.7851 27.1982C22.4672 29.0418 21.7888 29.7285 19.8812 30.1375ZM28.1362 20.6906C27.6199 20.9303 26.7558 21.1101 25.9349 21.1487C25.0282 21.1912 24.5667 21.0471 24.4581 20.9586C24.4071 19.9109 24.7972 19.8013 25.2099 19.6855C25.2747 19.6672 25.338 19.6495 25.3991 19.6281C25.437 19.659 25.4786 19.6897 25.5241 19.7197C26.2529 20.2007 27.5527 20.2526 29.3876 19.8739C29.3944 19.8724 29.4011 19.8711 29.4078 19.8698C29.1603 20.1012 28.7368 20.4118 28.1362 20.6906Z" fill="white"/>
</svg>
