<svg width="32" height="32" viewBox="0 0 32 32" fill="none" xmlns="http://www.w3.org/2000/svg">
<path d="M14.3139 22.2115C14.8639 22.2365 15.4259 22.2545 15.9949 22.2545C16.5699 22.2545 17.1379 22.2425 17.6949 22.2115C17.1379 22.9315 16.5879 23.5685 16.0059 24.1755L16.0139 24.1675C15.4349 23.5675 14.8789 22.9295 14.3549 22.2655L14.3139 22.2115ZM8.61586 21.4115C9.69886 21.6865 11.0199 21.9205 12.3679 22.0645L12.4989 22.0755C13.3239 23.2085 14.1579 24.2055 15.0529 25.1435L15.0419 25.1315C13.7309 26.5945 11.9619 27.6225 9.96086 27.9915L9.90586 27.9995C9.90186 27.9995 9.89786 27.9995 9.89386 27.9995C9.64586 27.9995 9.41186 27.9385 9.20686 27.8305L9.21486 27.8345C8.38286 27.3595 8.02186 25.5425 8.30286 23.2075C8.36986 22.6325 8.47986 22.0275 8.61486 21.4105L8.61586 21.4115ZM23.3989 21.3985C23.5169 21.8725 23.6279 22.4765 23.7069 23.0905L23.7159 23.1765C24.0029 25.5105 23.6489 27.3255 22.8239 27.8105C22.6399 27.9125 22.4199 27.9725 22.1859 27.9725C22.1629 27.9725 22.1399 27.9715 22.1169 27.9705H22.1199C20.0669 27.5955 18.2989 26.5745 16.9909 25.1295L16.9839 25.1215C17.8629 24.1985 18.6909 23.2035 19.4499 22.1565L19.5079 22.0725C20.9839 21.9185 22.3069 21.6805 23.5959 21.3555L23.3989 21.3975V21.3985ZM9.78486 17.6665C10.0349 18.1565 10.2969 18.6445 10.5849 19.1345C10.8722 19.6219 11.1659 20.0979 11.4659 20.5625C10.5979 20.4355 9.75986 20.2755 8.95886 20.0805C9.18386 19.2935 9.46586 18.4785 9.78386 17.6645L9.78486 17.6665ZM22.2129 17.6415C22.5439 18.4625 22.8249 19.2815 23.0579 20.0755C22.2579 20.2715 21.4129 20.4375 20.5389 20.5625C20.8389 20.0935 21.1389 19.6105 21.4199 19.1155C21.7009 18.6285 21.9639 18.1305 22.2149 17.6405L22.2129 17.6415ZM7.61986 12.2925C8.05586 13.7705 8.52386 15.0065 9.06886 16.1985L8.99386 16.0165C8.52786 17.0215 8.06686 18.2505 7.68886 19.5155L7.63686 19.7205C6.93086 19.5035 6.36286 19.2905 5.80986 19.0515L5.92486 19.0955C3.76086 18.1745 2.36086 16.9635 2.36086 16.0035C2.36086 15.0435 3.76086 13.8265 5.92486 12.9095C6.44986 12.6845 7.02586 12.4815 7.61986 12.2925ZM24.3589 12.2875C24.9639 12.4745 25.5389 12.6835 26.0769 12.9095C28.2409 13.8345 29.6409 15.0435 29.6409 16.0035C29.6349 16.9635 28.2349 18.1775 26.0709 19.0965C25.5459 19.3215 24.9709 19.5235 24.3779 19.7125C23.9379 18.2295 23.4699 16.9945 22.9269 15.8005L23.0029 15.9885C23.4669 14.9845 23.9289 13.7555 24.3059 12.4905L24.3589 12.2845V12.2875ZM20.5309 11.4445C21.3999 11.5735 22.2369 11.7315 23.0379 11.9285C22.8129 12.7185 22.5319 13.5305 22.2129 14.3445C21.9629 13.8575 21.7009 13.3665 21.4129 12.8775C21.1319 12.3875 20.8319 11.9105 20.5319 11.4455L20.5309 11.4445ZM11.4589 11.4445C11.1589 11.9155 10.8589 12.3975 10.5789 12.8945C10.2979 13.3815 10.0349 13.8715 9.78486 14.3615C9.45386 13.5415 9.17286 12.7245 8.93986 11.9285C9.73986 11.7415 10.5829 11.5745 11.4579 11.4465L11.4589 11.4445ZM16.0009 11.1265C16.9259 11.1265 17.8469 11.1685 18.7529 11.2425C19.2602 11.9699 19.7529 12.7445 20.2309 13.5665C20.6955 14.3665 21.1195 15.1772 21.5029 15.9985C21.1179 16.8175 20.6959 17.6355 20.2369 18.4355C19.7619 19.2605 19.2709 20.0455 18.7619 20.7725C17.8519 20.8515 16.9299 20.8945 15.9999 20.8945C15.0749 20.8945 14.1539 20.8505 13.2479 20.7785C12.7409 20.0515 12.2459 19.2735 11.7699 18.4545C11.3052 17.6545 10.8812 16.8439 10.4979 16.0225C10.8769 15.2015 11.3049 14.3815 11.7639 13.5805C12.2389 12.7555 12.7299 11.9735 13.2389 11.2465C14.1489 11.1665 15.0709 11.1245 16.0009 11.1245V11.1265ZM15.9819 7.84553C16.5619 8.44553 17.1179 9.08253 17.6409 9.74653L17.6809 9.79953C17.1309 9.77453 16.5689 9.75753 15.9999 9.75753C15.4249 9.75753 14.8569 9.76953 14.2999 9.79953C14.8559 9.07953 15.4059 8.44253 15.9889 7.83553L15.9809 7.84353L15.9819 7.84553ZM9.88086 4.03353C11.9339 4.40953 13.7009 5.43053 15.0099 6.87453L15.0169 6.88253C14.1379 7.80653 13.3099 8.80153 12.5509 9.85053L12.4929 9.93453C11.0179 10.0875 9.69486 10.3235 8.40686 10.6485L8.60286 10.6065C8.46286 9.99453 8.35886 9.40153 8.28586 8.83253C7.99886 6.49853 8.35286 4.68353 9.17786 4.20053C9.38386 4.10353 9.62486 4.04353 9.87886 4.03553H9.88186L9.88086 4.03353ZM22.0909 4.00853V4.01653C22.1039 4.01653 22.1189 4.01553 22.1349 4.01553C22.3739 4.01553 22.5989 4.07453 22.7969 4.17853L22.7889 4.17453C23.6209 4.65153 23.9819 6.46753 23.7009 8.80353C23.6339 9.37853 23.5239 9.98453 23.3889 10.6025C22.3039 10.3245 20.9829 10.0895 19.6349 9.94653L19.5069 9.93553C18.6809 8.80153 17.8469 7.80453 16.9519 6.86553L16.9639 6.87753C18.2749 5.41753 20.0409 4.38953 22.0379 4.01853L22.0939 4.00953L22.0909 4.00853ZM22.0969 2.64653C19.6549 3.01753 17.5409 4.20353 15.9969 5.91453L15.9889 5.92353C14.4339 4.21353 12.3199 3.03553 9.93786 2.67853L9.88186 2.67153C9.86886 2.67153 9.85286 2.67153 9.83686 2.67153C9.34586 2.67153 8.88486 2.80053 8.48586 3.02653L8.49986 3.01953C6.78186 4.01053 6.39686 7.09853 7.28386 10.9735C3.47986 12.1485 1.00586 14.0265 1.00586 16.0055C1.00586 17.9925 3.49286 19.8755 7.30786 21.0415C6.42786 24.9315 6.82086 28.0245 8.54286 29.0145C8.92086 29.2315 9.37486 29.3585 9.85786 29.3585C9.87986 29.3585 9.90186 29.3585 9.92286 29.3575H9.91986C12.3619 28.9865 14.4759 27.7995 16.0199 26.0875L16.0279 26.0785C17.5829 27.7895 19.6969 28.9675 22.0789 29.3245L22.1349 29.3315C22.1499 29.3315 22.1689 29.3315 22.1869 29.3315C22.6749 29.3315 23.1339 29.2035 23.5309 28.9805L23.5169 28.9875C25.2339 27.9975 25.6199 24.9095 24.7329 21.0335C28.5229 19.8685 30.9969 17.9865 30.9969 16.0045C30.9969 14.0175 28.5099 12.1345 24.6949 10.9655C25.5749 7.07953 25.1819 3.98353 23.4599 2.99253C23.0779 2.77353 22.6199 2.64453 22.1319 2.64453C22.1189 2.64453 22.1059 2.64453 22.0929 2.64453H22.0949L22.0969 2.64653ZM18.7879 16.0055C18.7879 17.5485 17.5369 18.7995 15.9939 18.7995C14.4509 18.7995 13.1999 17.5485 13.1999 16.0055C13.1999 14.4625 14.4509 13.2115 15.9939 13.2115C16.7659 13.2115 17.4639 13.5245 17.9699 14.0295C18.4759 14.5355 18.7879 15.2335 18.7879 16.0055Z" fill="white"/>
</svg>
