<svg width="32" height="32" viewBox="0 0 32 32" fill="none" xmlns="http://www.w3.org/2000/svg">
<path d="M4.74186 22C3.8169 22 2.99732 21.8462 2.28312 21.5385C1.56891 21.2308 1.00691 20.7802 0.597123 20.1868C0.199041 19.5824 0 18.8516 0 17.9945V17.5824H1.87918V17.9945C1.87918 18.8077 2.13676 19.4176 2.65193 19.8242C3.1788 20.2308 3.87544 20.4341 4.74186 20.4341C5.61998 20.4341 6.2815 20.2637 6.72641 19.9231C7.17133 19.5714 7.39379 19.1209 7.39379 18.5714C7.39379 18.2088 7.28841 17.9121 7.07766 17.6813C6.86691 17.4505 6.56835 17.2692 6.18198 17.1374C5.7956 16.9945 5.33313 16.8626 4.79455 16.7418L4.14474 16.5934C3.36028 16.4176 2.67534 16.2033 2.08993 15.9505C1.51622 15.6868 1.07131 15.3407 0.755185 14.9121C0.439061 14.4835 0.280999 13.9341 0.280999 13.2637C0.280999 12.5824 0.456623 12 0.807872 11.5165C1.17083 11.033 1.66843 10.6593 2.30068 10.3956C2.93293 10.1319 3.6764 10 4.53111 10C5.38581 10 6.14685 10.1374 6.81423 10.4121C7.49331 10.6868 8.02603 11.0934 8.41241 11.6319C8.79878 12.1703 8.99197 12.8462 8.99197 13.6593V14.2527H7.11279V13.6593C7.11279 13.1648 7.00156 12.7637 6.7791 12.456C6.56835 12.1484 6.26979 11.9231 5.88342 11.7802C5.49704 11.6374 5.04627 11.5659 4.53111 11.5659C3.78178 11.5659 3.19636 11.7143 2.77487 12.011C2.36508 12.2967 2.16018 12.6978 2.16018 13.2143C2.16018 13.5659 2.24799 13.8571 2.42362 14.0879C2.61095 14.3077 2.88024 14.489 3.23149 14.6319C3.58274 14.7747 4.0218 14.9011 4.54867 15.011L5.19848 15.1593C5.99465 15.3242 6.69714 15.5385 7.30597 15.8022C7.91481 16.0549 8.39485 16.4011 8.74609 16.8407C9.09734 17.2802 9.27297 17.8462 9.27297 18.5385C9.27297 19.2308 9.08564 19.8352 8.71097 20.3516C8.34801 20.8681 7.82699 21.2747 7.14791 21.5714C6.46883 21.8571 5.66681 22 4.74186 22Z" fill="white"/>
<path d="M10.7389 21.7692V20.1868H12.3898V11.8132H10.7389V10.2308H15.6564C17.2955 10.2308 18.5483 10.6209 19.4147 11.4011C20.2928 12.1813 20.7319 13.3571 20.7319 14.9286V17.0879C20.7319 18.6593 20.2928 19.8352 19.4147 20.6154C18.5483 21.3846 17.2955 21.7692 15.6564 21.7692H10.7389ZM14.3041 20.1538H15.6739C16.7394 20.1538 17.5297 19.9011 18.0449 19.3956C18.56 18.8901 18.8176 18.1374 18.8176 17.1374V14.8626C18.8176 13.8516 18.56 13.0989 18.0449 12.6044C17.5297 12.1099 16.7394 11.8626 15.6739 11.8626H14.3041V20.1538Z" fill="white"/>
<path d="M22.007 21.7692V20.1868H23.6578V11.8132H22.007V10.2308H26.9245C28.5636 10.2308 29.8164 10.6209 30.6828 11.4011C31.5609 12.1813 32 13.3571 32 14.9286V17.0879C32 18.6593 31.5609 19.8352 30.6828 20.6154C29.8164 21.3846 28.5636 21.7692 26.9245 21.7692H22.007ZM25.5721 20.1538H26.942C28.0075 20.1538 28.7978 19.9011 29.3129 19.3956C29.8281 18.8901 30.0857 18.1374 30.0857 17.1374V14.8626C30.0857 13.8516 29.8281 13.0989 29.3129 12.6044C28.7978 12.1099 28.0075 11.8626 26.942 11.8626H25.5721V20.1538Z" fill="white"/>
</svg>
