<svg width="32" height="32" viewBox="0 0 32 32" fill="none" xmlns="http://www.w3.org/2000/svg">
<path d="M17.0795 28.5434C16.3269 29.4293 14.8009 28.9439 14.7828 27.8127L14.5176 11.2676H26.4194C28.5751 11.2676 29.7774 13.5949 28.4369 15.1731L17.0795 28.5434Z" fill="url(#paint0_linear_4363_5405)"/>
<path d="M17.0795 28.5434C16.3269 29.4293 14.8009 28.9439 14.7828 27.8127L14.5176 11.2676H26.4194C28.5751 11.2676 29.7774 13.5949 28.4369 15.1731L17.0795 28.5434Z" fill="url(#paint1_linear_4363_5405)" fill-opacity="0.2"/>
<path d="M12.2417 1.45756C12.9515 0.571544 14.3906 1.05702 14.4077 2.18823L14.5172 18.7333H3.434C1.40103 18.7333 0.267201 16.406 1.53136 14.8278L12.2417 1.45756Z" fill="white"/>
<defs>
<linearGradient id="paint0_linear_4363_5405" x1="14.5176" y1="14.9361" x2="24.8716" y2="19.5817" gradientUnits="userSpaceOnUse">
<stop stop-color="#F3F3F3"/>
<stop offset="1" stop-color="white"/>
</linearGradient>
<linearGradient id="paint1_linear_4363_5405" x1="9.8279" y1="8.93415" x2="14.1633" y2="17.6651" gradientUnits="userSpaceOnUse">
<stop/>
<stop offset="1" stop-opacity="0"/>
</linearGradient>
</defs>
</svg>
