<svg width="32" height="32" viewBox="0 0 32 32" fill="none" xmlns="http://www.w3.org/2000/svg">
<path fill-rule="evenodd" clip-rule="evenodd" d="M30 2H2V30H30V2ZM13.3435 26.2667H11.0038V17.0162H7.64922V15.0872H16.6981V17.0162H13.3435V26.2667ZM26.8067 22.9352C26.8067 25.151 25.0867 26.5534 22.2978 26.5534C19.6249 26.5534 17.9359 25.2751 17.8043 23.2916L17.7965 23.1676H20.051L20.0587 23.2451C20.144 24.0819 21.0505 24.6475 22.3597 24.6475C23.607 24.6475 24.467 24.0509 24.467 23.191V23.1831C24.467 22.4473 23.9169 22.0366 22.5302 21.7499L21.3525 21.5098C19.0283 21.0372 18.0289 19.9525 18.0289 18.2559V18.248C18.0289 16.1717 19.8108 14.8005 22.2899 14.8005C24.9008 14.8005 26.4349 16.1796 26.5819 18.0466L26.5898 18.1474H24.3895L24.3741 18.0545C24.2423 17.2565 23.4676 16.6987 22.2899 16.6987C21.1356 16.7063 20.3686 17.2331 20.3686 18.0699V18.0776C20.3686 18.806 20.911 19.2398 22.2279 19.511L23.4133 19.7511C25.7763 20.2392 26.8067 21.1843 26.8067 22.9276V22.9352Z" fill="white"/>
</svg>
