<svg width="32" height="32" viewBox="0 0 32 32" fill="none" xmlns="http://www.w3.org/2000/svg">
<path d="M23.8464 10.3756L16.3557 21.2062C16.2763 21.321 16.1614 21.407 16.0286 21.4512C15.8957 21.4953 15.7521 21.4949 15.6195 21.4506C15.4869 21.406 15.3726 21.3195 15.2938 21.2045C15.2151 21.0893 15.1763 20.9516 15.1833 20.8125L15.4831 14.833L10.6433 13.8065C10.5399 13.7846 10.4435 13.7376 10.3627 13.6698C10.2819 13.6019 10.2192 13.5152 10.1802 13.4174C10.1411 13.3196 10.127 13.2137 10.1389 13.109C10.1508 13.0044 10.1884 12.9042 10.2484 12.8174L17.7392 1.98687C17.8186 1.87197 17.9335 1.78597 18.0663 1.74188C18.1992 1.69779 18.3428 1.69802 18.4754 1.74256C18.608 1.78709 18.7224 1.87348 18.8011 1.98865C18.8798 2.10379 18.9186 2.24141 18.9116 2.38062L18.6118 8.36028L23.4515 9.38658C23.555 9.40851 23.6513 9.45548 23.7322 9.52334C23.813 9.59124 23.8756 9.67791 23.9146 9.77574C23.9538 9.87354 23.9679 9.97948 23.9561 10.0841C23.9442 10.1888 23.9065 10.2888 23.8464 10.3756Z" fill="white"/>
<path d="M16.0019 30.2911C15.8027 30.2913 15.6054 30.2523 15.4213 30.176C15.2373 30.0997 15.0701 29.9878 14.9294 29.8468L7.85149 22.7695C7.56836 22.4849 7.40966 22.0995 7.41016 21.698C7.41069 21.2965 7.57042 20.9114 7.85436 20.6276C8.13826 20.3437 8.52322 20.1838 8.92472 20.1832C9.32629 20.1828 9.71166 20.3414 9.99636 20.6245L16.0019 26.6294L29.0852 13.5469C29.3704 13.2662 29.7549 13.1097 30.1549 13.1113C30.5552 13.113 30.9384 13.2726 31.2212 13.5555C31.5041 13.8385 31.6639 14.2217 31.6656 14.6218C31.667 15.0219 31.5105 15.4065 31.2299 15.6917L17.0742 29.8468C16.9336 29.988 16.7664 30.0997 16.5824 30.176C16.3984 30.2523 16.2011 30.2913 16.0019 30.2911Z" fill="white"/>
<path d="M15.9976 30.2911C16.1968 30.2913 16.3941 30.2523 16.5782 30.176C16.7623 30.0997 16.9294 29.9878 17.0701 29.8468L24.148 22.7695C24.4312 22.4849 24.5899 22.0995 24.5893 21.698C24.5889 21.2965 24.4291 20.9114 24.1451 20.6276C23.8611 20.3437 23.4762 20.1838 23.0747 20.1832C22.6732 20.1828 22.2879 20.3414 22.0031 20.6245L15.9976 26.6294L2.91437 13.5469C2.62915 13.2662 2.24461 13.1097 1.84451 13.1113C1.4444 13.113 1.06114 13.2726 0.778223 13.5555C0.4953 13.8385 0.335637 14.2217 0.333997 14.6218C0.332379 15.0219 0.488917 15.4065 0.769527 15.6917L14.9253 29.8468C15.066 29.988 15.2331 30.0997 15.4171 30.176C15.6011 30.2523 15.7984 30.2913 15.9976 30.2911Z" fill="white" fill-opacity="0.5"/>
</svg>
