<svg width="24" height="24" viewBox="0 0 24 24" fill="none" xmlns="http://www.w3.org/2000/svg">
<g clip-path="url(#clip0_4363_5631)">
<path d="M2.88459 0.0214844C1.29052 0.0214844 0.000257898 1.31407 0 2.90453C0 4.49653 1.29026 5.78886 2.88485 5.78886C4.47505 5.78886 5.76712 4.49653 5.76712 2.90453C5.76712 1.31381 4.47479 0.0214844 2.88459 0.0214844Z" fill="white"/>
<path d="M5.37057 7.97656H0.396484V23.9802H5.37057V7.97656Z" fill="white"/>
<path d="M18.0338 7.57812C15.6142 7.57812 13.9917 8.90475 13.3276 10.1628H13.2611V7.97606H8.49049H8.49023V23.9794H13.4599V16.0625C13.4599 13.9753 13.8574 11.9536 16.4451 11.9536C18.9957 11.9536 19.0298 14.3407 19.0298 16.1963V23.9792H24.0002V15.2013C24.0002 10.8926 23.0705 7.57812 18.0338 7.57812Z" fill="white"/>
</g>
<defs>
<clipPath id="clip0_4363_5631">
<rect width="24" height="24" fill="white"/>
</clipPath>
</defs>
</svg>
