<svg width="24" height="24" viewBox="0 0 24 24" fill="none" xmlns="http://www.w3.org/2000/svg">
<path d="M18.7685 16.0253C19.3026 16.3428 19.4832 17.0386 19.1016 17.5288C18.2456 18.6282 17.1427 19.5181 15.876 20.1226C14.2695 20.8892 12.4718 21.1622 10.7101 20.9071C8.94847 20.652 7.30202 19.8802 5.97899 18.6894C4.65596 17.4985 3.71577 15.9421 3.27731 14.2169C2.83885 12.4917 2.92181 10.6753 3.5157 8.99722C4.1096 7.31918 5.18775 5.85494 6.61382 4.78966C8.03989 3.72437 9.74983 3.10589 11.5274 3.01242C12.929 2.93872 14.323 3.19403 15.6 3.75134C16.1694 3.99986 16.3428 4.69745 16.0253 5.23147V5.23147C15.7077 5.76549 15.0192 5.93099 14.4399 5.70641C13.5544 5.36313 12.6024 5.209 11.6456 5.25931C10.3124 5.32941 9.02992 5.79328 7.96037 6.59224C6.89081 7.39121 6.0822 8.48939 5.63678 9.74791C5.19136 11.0064 5.12914 12.3688 5.45798 13.6627C5.78683 14.9566 6.49197 16.1239 7.48424 17.017C8.47652 17.9101 9.71135 18.489 11.0326 18.6803C12.3538 18.8717 13.7021 18.6669 14.907 18.0919C15.7717 17.6793 16.5347 17.0893 17.1488 16.3649C17.5506 15.891 18.2345 15.7077 18.7685 16.0253V16.0253Z" fill="white"/>
</svg>
