<svg width="24" height="24" viewBox="0 0 24 24" fill="none" xmlns="http://www.w3.org/2000/svg">
<g clip-path="url(#clip0_4379_5396)">
<path d="M15.11 12.4502L14 10.2402L10.89 16.4502C10.73 16.7902 10.38 17.0002 10 17.0002C9.62 17.0002 9.27 16.7902 9.11 16.4502L7.38 13.0002H2V18.0002C2 19.1002 2.9 20.0002 4 20.0002H20C21.1 20.0002 22 19.1002 22 18.0002V13.0002H16C15.62 13.0002 15.27 12.7902 15.11 12.4502Z" fill="white"/>
<path d="M20 4H4C2.9 4 2 4.9 2 6V11H8C8.38 11 8.73 11.21 8.89 11.55L10 13.76L13.11 7.55C13.45 6.87 14.56 6.87 14.9 7.55L16.62 11H22V6C22 4.9 21.1 4 20 4Z" fill="white"/>
</g>
<defs>
<clipPath id="clip0_4379_5396">
<rect width="24" height="24" fill="white"/>
</clipPath>
</defs>
</svg>
